<?xml version="1.0" encoding="UTF-8" standalone="no"?>
<!DOCTYPE svg PUBLIC "-//W3C//DTD SVG 1.1//EN"
 "http://www.w3.org/Graphics/SVG/1.1/DTD/svg11.dtd">
<!-- Generated by graphviz version 2.40.1 (20161225.0304)
 -->
<!-- Title: controllers_diagram Pages: 1 -->
<svg width="736pt" height="197pt"
 viewBox="0.00 0.00 735.81 197.00" xmlns="http://www.w3.org/2000/svg" xmlns:xlink="http://www.w3.org/1999/xlink">
<g id="graph0" class="graph" transform="scale(1 1) rotate(0) translate(4 193)">
<title>controllers_diagram</title>
<polygon fill="transparent" stroke="transparent" points="-4,4 -4,-193 731.8105,-193 731.8105,4 -4,4"/>
<!-- ApplicationController -->
<g id="node1" class="node">
<title>ApplicationController</title>
<path fill="none" stroke="#000000" d="M12,-48.5C12,-48.5 127.6416,-48.5 127.6416,-48.5 133.6416,-48.5 139.6416,-54.5 139.6416,-60.5 139.6416,-60.5 139.6416,-128.5 139.6416,-128.5 139.6416,-134.5 133.6416,-140.5 127.6416,-140.5 127.6416,-140.5 12,-140.5 12,-140.5 6,-140.5 0,-134.5 0,-128.5 0,-128.5 0,-60.5 0,-60.5 0,-54.5 6,-48.5 12,-48.5"/>
<text text-anchor="middle" x="69.8208" y="-125.3" font-family="Times,serif" font-size="14.00" fill="#000000">ApplicationController</text>
<polyline fill="none" stroke="#000000" points="0,-118.5 139.6416,-118.5 "/>
<polyline fill="none" stroke="#000000" points="0,-94.5 139.6416,-94.5 "/>
<polyline fill="none" stroke="#000000" points="0,-70.5 139.6416,-70.5 "/>
<text text-anchor="start" x="8" y="-55.3" font-family="Times,serif" font-size="14.00" fill="#000000">_layout</text>
</g>
<!-- DepartmentController -->
<g id="node2" class="node">
<title>DepartmentController</title>
<path fill="none" stroke="#000000" d="M170.0068,-7.5C170.0068,-7.5 285.6348,-7.5 285.6348,-7.5 291.6348,-7.5 297.6348,-13.5 297.6348,-19.5 297.6348,-19.5 297.6348,-169.5 297.6348,-169.5 297.6348,-175.5 291.6348,-181.5 285.6348,-181.5 285.6348,-181.5 170.0068,-181.5 170.0068,-181.5 164.0068,-181.5 158.0068,-175.5 158.0068,-169.5 158.0068,-169.5 158.0068,-19.5 158.0068,-19.5 158.0068,-13.5 164.0068,-7.5 170.0068,-7.5"/>
<text text-anchor="middle" x="227.8208" y="-166.3" font-family="Times,serif" font-size="14.00" fill="#000000">DepartmentController</text>
<polyline fill="none" stroke="#000000" points="158.0068,-159.5 297.6348,-159.5 "/>
<text text-anchor="start" x="166.0068" y="-144.3" font-family="Times,serif" font-size="14.00" fill="#000000">create</text>
<text text-anchor="start" x="166.0068" y="-130.3" font-family="Times,serif" font-size="14.00" fill="#000000">destroy</text>
<text text-anchor="start" x="166.0068" y="-116.3" font-family="Times,serif" font-size="14.00" fill="#000000">manage</text>
<text text-anchor="start" x="166.0068" y="-102.3" font-family="Times,serif" font-size="14.00" fill="#000000">monthly_record</text>
<text text-anchor="start" x="166.0068" y="-88.3" font-family="Times,serif" font-size="14.00" fill="#000000">new</text>
<text text-anchor="start" x="166.0068" y="-74.3" font-family="Times,serif" font-size="14.00" fill="#000000">record</text>
<text text-anchor="start" x="166.0068" y="-60.3" font-family="Times,serif" font-size="14.00" fill="#000000">staff_record</text>
<polyline fill="none" stroke="#000000" points="158.0068,-53.5 297.6348,-53.5 "/>
<polyline fill="none" stroke="#000000" points="158.0068,-29.5 297.6348,-29.5 "/>
<text text-anchor="start" x="166.0068" y="-14.3" font-family="Times,serif" font-size="14.00" fill="#000000">_layout</text>
</g>
<!-- DutyController -->
<g id="node3" class="node">
<title>DutyController</title>
<path fill="none" stroke="#000000" d="M327.2207,-.5C327.2207,-.5 472.4209,-.5 472.4209,-.5 478.4209,-.5 484.4209,-6.5 484.4209,-12.5 484.4209,-12.5 484.4209,-176.5 484.4209,-176.5 484.4209,-182.5 478.4209,-188.5 472.4209,-188.5 472.4209,-188.5 327.2207,-188.5 327.2207,-188.5 321.2207,-188.5 315.2207,-182.5 315.2207,-176.5 315.2207,-176.5 315.2207,-12.5 315.2207,-12.5 315.2207,-6.5 321.2207,-.5 327.2207,-.5"/>
<text text-anchor="middle" x="399.8208" y="-173.3" font-family="Times,serif" font-size="14.00" fill="#000000">DutyController</text>
<polyline fill="none" stroke="#000000" points="315.2207,-166.5 484.4209,-166.5 "/>
<text text-anchor="start" x="323.2207" y="-151.3" font-family="Times,serif" font-size="14.00" fill="#000000">time</text>
<text text-anchor="start" x="323.2207" y="-137.3" font-family="Times,serif" font-size="14.00" fill="#000000">delete_image</text>
<text text-anchor="start" x="323.2207" y="-123.3" font-family="Times,serif" font-size="14.00" fill="#000000">error_duty</text>
<text text-anchor="start" x="323.2207" y="-109.3" font-family="Times,serif" font-size="14.00" fill="#000000">exit_duty</text>
<text text-anchor="start" x="323.2207" y="-95.3" font-family="Times,serif" font-size="14.00" fill="#000000">index</text>
<text text-anchor="start" x="323.2207" y="-81.3" font-family="Times,serif" font-size="14.00" fill="#000000">investigate_working_status</text>
<text text-anchor="start" x="323.2207" y="-67.3" font-family="Times,serif" font-size="14.00" fill="#000000">start_duty</text>
<text text-anchor="start" x="323.2207" y="-53.3" font-family="Times,serif" font-size="14.00" fill="#000000">branch_duty</text>
<polyline fill="none" stroke="#000000" points="315.2207,-46.5 484.4209,-46.5 "/>
<polyline fill="none" stroke="#000000" points="315.2207,-22.5 484.4209,-22.5 "/>
<text text-anchor="start" x="323.2207" y="-7.3" font-family="Times,serif" font-size="14.00" fill="#000000">_layout</text>
</g>
<!-- HomeController -->
<g id="node4" class="node">
<title>HomeController</title>
<path fill="none" stroke="#000000" d="M513.9414,-49.5C513.9414,-49.5 597.7002,-49.5 597.7002,-49.5 603.7002,-49.5 609.7002,-55.5 609.7002,-61.5 609.7002,-61.5 609.7002,-127.5 609.7002,-127.5 609.7002,-133.5 603.7002,-139.5 597.7002,-139.5 597.7002,-139.5 513.9414,-139.5 513.9414,-139.5 507.9414,-139.5 501.9414,-133.5 501.9414,-127.5 501.9414,-127.5 501.9414,-61.5 501.9414,-61.5 501.9414,-55.5 507.9414,-49.5 513.9414,-49.5"/>
<text text-anchor="middle" x="555.8208" y="-124.3" font-family="Times,serif" font-size="14.00" fill="#000000">HomeController</text>
<polyline fill="none" stroke="#000000" points="501.9414,-117.5 609.7002,-117.5 "/>
<text text-anchor="start" x="509.9414" y="-102.3" font-family="Times,serif" font-size="14.00" fill="#000000">top</text>
<polyline fill="none" stroke="#000000" points="501.9414,-95.5 609.7002,-95.5 "/>
<polyline fill="none" stroke="#000000" points="501.9414,-71.5 609.7002,-71.5 "/>
<text text-anchor="start" x="509.9414" y="-56.3" font-family="Times,serif" font-size="14.00" fill="#000000">_layout</text>
</g>
<!-- UserController -->
<g id="node5" class="node">
<title>UserController</title>
<path fill="none" stroke="#000000" d="M639.8311,-.5C639.8311,-.5 715.8105,-.5 715.8105,-.5 721.8105,-.5 727.8105,-6.5 727.8105,-12.5 727.8105,-12.5 727.8105,-176.5 727.8105,-176.5 727.8105,-182.5 721.8105,-188.5 715.8105,-188.5 715.8105,-188.5 639.8311,-188.5 639.8311,-188.5 633.8311,-188.5 627.8311,-182.5 627.8311,-176.5 627.8311,-176.5 627.8311,-12.5 627.8311,-12.5 627.8311,-6.5 633.8311,-.5 639.8311,-.5"/>
<text text-anchor="middle" x="677.8208" y="-173.3" font-family="Times,serif" font-size="14.00" fill="#000000">UserController</text>
<polyline fill="none" stroke="#000000" points="627.8311,-166.5 727.8105,-166.5 "/>
<text text-anchor="start" x="635.8311" y="-151.3" font-family="Times,serif" font-size="14.00" fill="#000000">add_face</text>
<text text-anchor="start" x="635.8311" y="-137.3" font-family="Times,serif" font-size="14.00" fill="#000000">create</text>
<text text-anchor="start" x="635.8311" y="-123.3" font-family="Times,serif" font-size="14.00" fill="#000000">create_face</text>
<text text-anchor="start" x="635.8311" y="-109.3" font-family="Times,serif" font-size="14.00" fill="#000000">delete_image</text>
<text text-anchor="start" x="635.8311" y="-95.3" font-family="Times,serif" font-size="14.00" fill="#000000">destroy</text>
<text text-anchor="start" x="635.8311" y="-81.3" font-family="Times,serif" font-size="14.00" fill="#000000">manage_staff</text>
<text text-anchor="start" x="635.8311" y="-67.3" font-family="Times,serif" font-size="14.00" fill="#000000">new</text>
<polyline fill="none" stroke="#000000" points="627.8311,-60.5 727.8105,-60.5 "/>
<polyline fill="none" stroke="#000000" points="627.8311,-36.5 727.8105,-36.5 "/>
<text text-anchor="start" x="635.8311" y="-21.3" font-family="Times,serif" font-size="14.00" fill="#000000">_layout</text>
<text text-anchor="start" x="635.8311" y="-7.3" font-family="Times,serif" font-size="14.00" fill="#000000">strong_user</text>
</g>
</g>
</svg>
