<?xml version="1.0" encoding="UTF-8" standalone="no"?>
<!DOCTYPE svg PUBLIC "-//W3C//DTD SVG 1.1//EN"
 "http://www.w3.org/Graphics/SVG/1.1/DTD/svg11.dtd">
<!-- Generated by graphviz version 2.40.1 (20161225.0304)
 -->
<!-- Title: controllers_diagram Pages: 1 -->
<svg width="488pt" height="435pt"
 viewBox="0.00 0.00 487.64 435.00" xmlns="http://www.w3.org/2000/svg" xmlns:xlink="http://www.w3.org/1999/xlink">
<g id="graph0" class="graph" transform="scale(1 1) rotate(0) translate(4 431)">
<title>controllers_diagram</title>
<polygon fill="transparent" stroke="transparent" points="-4,4 -4,-431 483.6416,-431 483.6416,4 -4,4"/>
<!-- _diagram_info -->
<g id="node1" class="node">
<title>_diagram_info</title>
<text text-anchor="start" x="280" y="-262.6" font-family="Times,serif" font-size="13.00" fill="#000000">Controllers diagram</text>
<text text-anchor="start" x="280" y="-249.6" font-family="Times,serif" font-size="13.00" fill="#000000">Date: May 11 2018 &#45; 19:03</text>
<text text-anchor="start" x="280" y="-236.6" font-family="Times,serif" font-size="13.00" fill="#000000">Migration version: 20180509081301</text>
<text text-anchor="start" x="280" y="-223.6" font-family="Times,serif" font-size="13.00" fill="#000000">Generated by RailRoady 1.5.3</text>
<text text-anchor="start" x="280" y="-210.6" font-family="Times,serif" font-size="13.00" fill="#000000">http://railroady.prestonlee.com</text>
</g>
<!-- ApplicationController -->
<g id="node2" class="node">
<title>ApplicationController</title>
<path fill="none" stroke="#000000" d="M352,-306.5C352,-306.5 467.6416,-306.5 467.6416,-306.5 473.6416,-306.5 479.6416,-312.5 479.6416,-318.5 479.6416,-318.5 479.6416,-386.5 479.6416,-386.5 479.6416,-392.5 473.6416,-398.5 467.6416,-398.5 467.6416,-398.5 352,-398.5 352,-398.5 346,-398.5 340,-392.5 340,-386.5 340,-386.5 340,-318.5 340,-318.5 340,-312.5 346,-306.5 352,-306.5"/>
<text text-anchor="middle" x="409.8208" y="-383.3" font-family="Times,serif" font-size="14.00" fill="#000000">ApplicationController</text>
<polyline fill="none" stroke="#000000" points="340,-376.5 479.6416,-376.5 "/>
<polyline fill="none" stroke="#000000" points="340,-352.5 479.6416,-352.5 "/>
<polyline fill="none" stroke="#000000" points="340,-328.5 479.6416,-328.5 "/>
<text text-anchor="start" x="348" y="-313.3" font-family="Times,serif" font-size="14.00" fill="#000000">_layout</text>
</g>
<!-- DepartmentController -->
<g id="node3" class="node">
<title>DepartmentController</title>
<path fill="none" stroke="#000000" d="M284,-.5C284,-.5 399.6279,-.5 399.6279,-.5 405.6279,-.5 411.6279,-6.5 411.6279,-12.5 411.6279,-12.5 411.6279,-162.5 411.6279,-162.5 411.6279,-168.5 405.6279,-174.5 399.6279,-174.5 399.6279,-174.5 284,-174.5 284,-174.5 278,-174.5 272,-168.5 272,-162.5 272,-162.5 272,-12.5 272,-12.5 272,-6.5 278,-.5 284,-.5"/>
<text text-anchor="middle" x="341.814" y="-159.3" font-family="Times,serif" font-size="14.00" fill="#000000">DepartmentController</text>
<polyline fill="none" stroke="#000000" points="272,-152.5 411.6279,-152.5 "/>
<text text-anchor="start" x="280" y="-137.3" font-family="Times,serif" font-size="14.00" fill="#000000">create</text>
<text text-anchor="start" x="280" y="-123.3" font-family="Times,serif" font-size="14.00" fill="#000000">destroy</text>
<text text-anchor="start" x="280" y="-109.3" font-family="Times,serif" font-size="14.00" fill="#000000">manage</text>
<text text-anchor="start" x="280" y="-95.3" font-family="Times,serif" font-size="14.00" fill="#000000">monthly_record</text>
<text text-anchor="start" x="280" y="-81.3" font-family="Times,serif" font-size="14.00" fill="#000000">new</text>
<text text-anchor="start" x="280" y="-67.3" font-family="Times,serif" font-size="14.00" fill="#000000">record</text>
<text text-anchor="start" x="280" y="-53.3" font-family="Times,serif" font-size="14.00" fill="#000000">staff_record</text>
<polyline fill="none" stroke="#000000" points="272,-46.5 411.6279,-46.5 "/>
<polyline fill="none" stroke="#000000" points="272,-22.5 411.6279,-22.5 "/>
<text text-anchor="start" x="280" y="-7.3" font-family="Times,serif" font-size="14.00" fill="#000000">_layout</text>
</g>
<!-- DutyController -->
<g id="node4" class="node">
<title>DutyController</title>
<path fill="none" stroke="#000000" d="M80,-17.5C80,-17.5 225.2002,-17.5 225.2002,-17.5 231.2002,-17.5 237.2002,-23.5 237.2002,-29.5 237.2002,-29.5 237.2002,-193.5 237.2002,-193.5 237.2002,-199.5 231.2002,-205.5 225.2002,-205.5 225.2002,-205.5 80,-205.5 80,-205.5 74,-205.5 68,-199.5 68,-193.5 68,-193.5 68,-29.5 68,-29.5 68,-23.5 74,-17.5 80,-17.5"/>
<text text-anchor="middle" x="152.6001" y="-190.3" font-family="Times,serif" font-size="14.00" fill="#000000">DutyController</text>
<polyline fill="none" stroke="#000000" points="68,-183.5 237.2002,-183.5 "/>
<text text-anchor="start" x="76" y="-168.3" font-family="Times,serif" font-size="14.00" fill="#000000">time</text>
<text text-anchor="start" x="76" y="-154.3" font-family="Times,serif" font-size="14.00" fill="#000000">delete_image</text>
<text text-anchor="start" x="76" y="-140.3" font-family="Times,serif" font-size="14.00" fill="#000000">error_duty</text>
<text text-anchor="start" x="76" y="-126.3" font-family="Times,serif" font-size="14.00" fill="#000000">exit_duty</text>
<text text-anchor="start" x="76" y="-112.3" font-family="Times,serif" font-size="14.00" fill="#000000">index</text>
<text text-anchor="start" x="76" y="-98.3" font-family="Times,serif" font-size="14.00" fill="#000000">investigate_working_status</text>
<text text-anchor="start" x="76" y="-84.3" font-family="Times,serif" font-size="14.00" fill="#000000">start_duty</text>
<text text-anchor="start" x="76" y="-70.3" font-family="Times,serif" font-size="14.00" fill="#000000">branch_duty</text>
<polyline fill="none" stroke="#000000" points="68,-63.5 237.2002,-63.5 "/>
<polyline fill="none" stroke="#000000" points="68,-39.5 237.2002,-39.5 "/>
<text text-anchor="start" x="76" y="-24.3" font-family="Times,serif" font-size="14.00" fill="#000000">_layout</text>
</g>
<!-- HomeController -->
<g id="node5" class="node">
<title>HomeController</title>
<path fill="none" stroke="#000000" d="M12,-272.5C12,-272.5 95.7588,-272.5 95.7588,-272.5 101.7588,-272.5 107.7588,-278.5 107.7588,-284.5 107.7588,-284.5 107.7588,-350.5 107.7588,-350.5 107.7588,-356.5 101.7588,-362.5 95.7588,-362.5 95.7588,-362.5 12,-362.5 12,-362.5 6,-362.5 0,-356.5 0,-350.5 0,-350.5 0,-284.5 0,-284.5 0,-278.5 6,-272.5 12,-272.5"/>
<text text-anchor="middle" x="53.8794" y="-347.3" font-family="Times,serif" font-size="14.00" fill="#000000">HomeController</text>
<polyline fill="none" stroke="#000000" points="0,-340.5 107.7588,-340.5 "/>
<text text-anchor="start" x="8" y="-325.3" font-family="Times,serif" font-size="14.00" fill="#000000">top</text>
<polyline fill="none" stroke="#000000" points="0,-318.5 107.7588,-318.5 "/>
<polyline fill="none" stroke="#000000" points="0,-294.5 107.7588,-294.5 "/>
<text text-anchor="start" x="8" y="-279.3" font-family="Times,serif" font-size="14.00" fill="#000000">_layout</text>
</g>
<!-- UserController -->
<g id="node6" class="node">
<title>UserController</title>
<path fill="none" stroke="#000000" d="M148,-238.5C148,-238.5 223.9795,-238.5 223.9795,-238.5 229.9795,-238.5 235.9795,-244.5 235.9795,-250.5 235.9795,-250.5 235.9795,-414.5 235.9795,-414.5 235.9795,-420.5 229.9795,-426.5 223.9795,-426.5 223.9795,-426.5 148,-426.5 148,-426.5 142,-426.5 136,-420.5 136,-414.5 136,-414.5 136,-250.5 136,-250.5 136,-244.5 142,-238.5 148,-238.5"/>
<text text-anchor="middle" x="185.9897" y="-411.3" font-family="Times,serif" font-size="14.00" fill="#000000">UserController</text>
<polyline fill="none" stroke="#000000" points="136,-404.5 235.9795,-404.5 "/>
<text text-anchor="start" x="144" y="-389.3" font-family="Times,serif" font-size="14.00" fill="#000000">add_face</text>
<text text-anchor="start" x="144" y="-375.3" font-family="Times,serif" font-size="14.00" fill="#000000">create</text>
<text text-anchor="start" x="144" y="-361.3" font-family="Times,serif" font-size="14.00" fill="#000000">create_face</text>
<text text-anchor="start" x="144" y="-347.3" font-family="Times,serif" font-size="14.00" fill="#000000">delete_image</text>
<text text-anchor="start" x="144" y="-333.3" font-family="Times,serif" font-size="14.00" fill="#000000">destroy</text>
<text text-anchor="start" x="144" y="-319.3" font-family="Times,serif" font-size="14.00" fill="#000000">manage_staff</text>
<text text-anchor="start" x="144" y="-305.3" font-family="Times,serif" font-size="14.00" fill="#000000">new</text>
<polyline fill="none" stroke="#000000" points="136,-298.5 235.9795,-298.5 "/>
<polyline fill="none" stroke="#000000" points="136,-274.5 235.9795,-274.5 "/>
<text text-anchor="start" x="144" y="-259.3" font-family="Times,serif" font-size="14.00" fill="#000000">_layout</text>
<text text-anchor="start" x="144" y="-245.3" font-family="Times,serif" font-size="14.00" fill="#000000">strong_user</text>
</g>
</g>
</svg>
