<?xml version="1.0" encoding="UTF-8" standalone="no"?>
<!DOCTYPE svg PUBLIC "-//W3C//DTD SVG 1.1//EN"
 "http://www.w3.org/Graphics/SVG/1.1/DTD/svg11.dtd">
<!-- Generated by graphviz version 2.40.1 (20161225.0304)
 -->
<!-- Title: models_diagram Pages: 1 -->
<svg width="553pt" height="274pt"
 viewBox="0.00 0.00 553.08 274.00" xmlns="http://www.w3.org/2000/svg" xmlns:xlink="http://www.w3.org/1999/xlink">
<g id="graph0" class="graph" transform="scale(1 1) rotate(0) translate(4 270)">
<title>models_diagram</title>
<polygon fill="transparent" stroke="transparent" points="-4,4 -4,-270 549.0835,-270 549.0835,4 -4,4"/>
<!-- _diagram_info -->
<g id="node1" class="node">
<title>_diagram_info</title>
<text text-anchor="start" x="8" y="-237.6" font-family="Times,serif" font-size="13.00" fill="#000000">Models diagram</text>
<text text-anchor="start" x="8" y="-224.6" font-family="Times,serif" font-size="13.00" fill="#000000">Date: May 11 2018 &#45; 19:03</text>
<text text-anchor="start" x="8" y="-211.6" font-family="Times,serif" font-size="13.00" fill="#000000">Migration version: 20180509081301</text>
<text text-anchor="start" x="8" y="-198.6" font-family="Times,serif" font-size="13.00" fill="#000000">Generated by RailRoady 1.5.3</text>
<text text-anchor="start" x="8" y="-185.6" font-family="Times,serif" font-size="13.00" fill="#000000">http://railroady.prestonlee.com</text>
</g>
<!-- Duty -->
<g id="node2" class="node">
<title>Duty</title>
<path fill="none" stroke="#000000" d="M244.1824,-.5C244.1824,-.5 353.1931,-.5 353.1931,-.5 359.1931,-.5 365.1931,-6.5 365.1931,-12.5 365.1931,-12.5 365.1931,-116.5 365.1931,-116.5 365.1931,-122.5 359.1931,-128.5 353.1931,-128.5 353.1931,-128.5 244.1824,-128.5 244.1824,-128.5 238.1824,-128.5 232.1824,-122.5 232.1824,-116.5 232.1824,-116.5 232.1824,-12.5 232.1824,-12.5 232.1824,-6.5 238.1824,-.5 244.1824,-.5"/>
<text text-anchor="middle" x="298.6877" y="-113.3" font-family="Times,serif" font-size="14.00" fill="#000000">Duty</text>
<polyline fill="none" stroke="#000000" points="232.1824,-106.5 365.1931,-106.5 "/>
<text text-anchor="start" x="240.1824" y="-91.3" font-family="Times,serif" font-size="14.00" fill="#000000">id :integer</text>
<text text-anchor="start" x="240.1824" y="-77.3" font-family="Times,serif" font-size="14.00" fill="#000000">start_time :varchar</text>
<text text-anchor="start" x="240.1824" y="-63.3" font-family="Times,serif" font-size="14.00" fill="#000000">exit_time :varchar</text>
<text text-anchor="start" x="240.1824" y="-49.3" font-family="Times,serif" font-size="14.00" fill="#000000">duty_date :date</text>
<text text-anchor="start" x="240.1824" y="-35.3" font-family="Times,serif" font-size="14.00" fill="#000000">user_id :integer</text>
<text text-anchor="start" x="240.1824" y="-21.3" font-family="Times,serif" font-size="14.00" fill="#000000">created_at :datetime</text>
<text text-anchor="start" x="240.1824" y="-7.3" font-family="Times,serif" font-size="14.00" fill="#000000">updated_at :datetime</text>
</g>
<!-- ApplicationRecord -->
<g id="node3" class="node">
<title>ApplicationRecord</title>
<ellipse fill="none" stroke="#000000" cx="467.6877" cy="-215.5" rx="77.2916" ry="18"/>
<text text-anchor="middle" x="467.6877" y="-211.3" font-family="Times,serif" font-size="14.00" fill="#000000">ApplicationRecord</text>
</g>
<!-- User -->
<g id="node4" class="node">
<title>User</title>
<path fill="none" stroke="#000000" d="M237.5789,-165.5C237.5789,-165.5 359.7966,-165.5 359.7966,-165.5 365.7966,-165.5 371.7966,-171.5 371.7966,-177.5 371.7966,-177.5 371.7966,-253.5 371.7966,-253.5 371.7966,-259.5 365.7966,-265.5 359.7966,-265.5 359.7966,-265.5 237.5789,-265.5 237.5789,-265.5 231.5789,-265.5 225.5789,-259.5 225.5789,-253.5 225.5789,-253.5 225.5789,-177.5 225.5789,-177.5 225.5789,-171.5 231.5789,-165.5 237.5789,-165.5"/>
<text text-anchor="middle" x="298.6877" y="-250.3" font-family="Times,serif" font-size="14.00" fill="#000000">User</text>
<polyline fill="none" stroke="#000000" points="225.5789,-243.5 371.7966,-243.5 "/>
<text text-anchor="start" x="233.5789" y="-228.3" font-family="Times,serif" font-size="14.00" fill="#000000">id :integer</text>
<text text-anchor="start" x="233.5789" y="-214.3" font-family="Times,serif" font-size="14.00" fill="#000000">name :varchar</text>
<text text-anchor="start" x="233.5789" y="-200.3" font-family="Times,serif" font-size="14.00" fill="#000000">created_at :datetime</text>
<text text-anchor="start" x="233.5789" y="-186.3" font-family="Times,serif" font-size="14.00" fill="#000000">updated_at :datetime</text>
<text text-anchor="start" x="233.5789" y="-172.3" font-family="Times,serif" font-size="14.00" fill="#000000">department_id :varchar</text>
</g>
<!-- User&#45;&gt;Duty -->
<g id="edge1" class="edge">
<title>User&#45;&gt;Duty</title>
<path fill="none" stroke="#ad6589" d="M298.6877,-157.104C298.6877,-151.1074 298.6877,-144.9588 298.6877,-138.8207"/>
<ellipse fill="none" stroke="#ad6589" cx="298.6878" cy="-161.2192" rx="4" ry="4"/>
<polygon fill="#ad6589" stroke="#ad6589" points="298.6878,-138.529 303.1877,-128.529 298.6878,-133.529 298.6877,-128.529 298.6877,-128.529 298.6877,-128.529 298.6878,-133.529 294.1877,-128.5291 298.6878,-138.529 298.6878,-138.529"/>
</g>
</g>
</svg>
